<svg width="12" height="12" viewBox="0 0 12 12" fill="none" xmlns="http://www.w3.org/2000/svg">
<path d="M7.06097 6.00023L11.781 1.28074C12.074 0.987743 12.074 0.512713 11.781 0.219744C11.488 -0.073248 11.0129 -0.073248 10.72 0.219744L6.00047 4.93973L1.28098 0.219744C0.987988 -0.073248 0.512957 -0.073248 0.219988 0.219744C-0.0729804 0.512736 -0.0730039 0.987767 0.219988 1.28074L4.93997 6.00023L0.219988 10.7197C-0.0730039 11.0127 -0.0730039 11.4878 0.219988 11.7807C0.51298 12.0737 0.988011 12.0737 1.28098 11.7807L6.00047 7.06072L10.72 11.7807C11.0129 12.0737 11.488 12.0737 11.7809 11.7807C12.0739 11.4877 12.0739 11.0127 11.7809 10.7197L7.06097 6.00023Z" fill="white"/>
</svg>
