<svg width="21" height="20" viewBox="0 0 21 20" fill="none" xmlns="http://www.w3.org/2000/svg">
<path d="M10.499 19.9995C16.0219 19.9995 20.499 15.5224 20.499 9.99951C20.499 4.47666 16.0219 -0.000488281 10.499 -0.000488281C7.99127 -0.000488281 5.69911 0.922606 3.94381 2.44754L4.12564 1.4469C4.22442 0.903287 3.86381 0.38252 3.32019 0.283739C2.77657 0.184957 2.25581 0.545569 2.15702 1.08919L1.50787 4.66165C1.34553 5.55504 1.93817 6.41089 2.83156 6.57323C3.09556 6.6212 3.36729 6.60383 3.62303 6.52263L7.28389 5.36034C7.80952 5.19346 8.10229 4.63398 7.93976 4.10699C7.77628 3.57689 7.21403 3.27969 6.68393 3.44317L5.39173 3.84168C6.77728 2.69123 8.55737 1.99951 10.499 1.99951C14.9173 1.99951 18.499 5.58123 18.499 9.99951C18.499 14.4178 14.9173 17.9995 10.499 17.9995C6.41872 17.9995 3.05189 14.9448 2.56067 10.9975C2.49247 10.4495 2.05131 9.99951 1.49902 9.99951C0.946739 9.99951 0.493771 10.4485 0.54826 10.9981C1.04934 16.0521 5.3132 19.9995 10.499 19.9995Z" fill="#0D0D0D"/>
</svg>
