<svg width="60" height="60" viewBox="0 0 60 60" fill="none" xmlns="http://www.w3.org/2000/svg">
<g clip-path="url(#clip0_3_182)">
<path d="M68.8142 0H-8.81414C-12.5908 0 -15.6522 2.94867 -15.6522 6.58629V17.5H75.6522V6.58629C75.6522 2.94867 72.5908 0 68.8142 0Z" fill="#82AFFF"/>
<path d="M-15.6522 53.4137C-15.6522 57.0512 -12.5908 60 -8.81414 60H68.8142C72.5906 60 75.6522 57.0513 75.6522 53.4137V42.5H-15.6522V53.4137Z" fill="#73AF00"/>
<path d="M75.6522 20H-15.6522V40H75.6522V20Z" fill="#F5F5F5"/>
<path d="M-15.7897 19.9999V20.7172H75.7893V19.9999V18.2233H-15.7897V19.9999Z" fill="#FF4B55"/>
<path d="M-15.7897 40V41.7766H75.7893V40V39.2827H-15.7897V40Z" fill="#FF4B55"/>
</g>
<defs>
<clipPath id="clip0_3_182">
<rect width="60" height="60" rx="30" fill="white"/>
</clipPath>
</defs>
</svg>
